<?xml version="1.0" encoding="utf-8"?>
<!-- Generator: Adobe Illustrator 23.0.1, SVG Export Plug-In . SVG Version: 6.00 Build 0)  -->
<svg version="1.0" id="Layer_1" xmlns="http://www.w3.org/2000/svg" xmlns:xlink="http://www.w3.org/1999/xlink" x="0px" y="0px"
	 viewBox="0 0 136 35" style="enable-background:new 0 0 136 35;" xml:space="preserve">
<style type="text/css">
	.st0{fill-rule:evenodd;clip-rule:evenodd;fill:#4BC7E7;}
	.st1{fill-rule:evenodd;clip-rule:evenodd;fill:#8DC63F;}
	.st2{fill-rule:evenodd;clip-rule:evenodd;fill:#00A5E5;}
	.st3{fill-rule:evenodd;clip-rule:evenodd;fill:#00377B;}
	.st4{fill-rule:evenodd;clip-rule:evenodd;fill:#2E3D79;}
	.st5{fill:#2E3D79;}
</style>
<g>
	<path class="st0" d="M38.1,19.2c-3.5,2.1-6.5,2.7-9.1,2.1C19,19.6,14.5,5.5,0.2,14.1c10.9-1.6,15,13.4,25.3,14.6
		C29.3,29.3,35.9,27.5,38.1,19.2z"/>
	<path class="st1" d="M31.2,7.2c-7.8,6.1-12.7-3.5-21.6,2.2c5.5-0.1,8.8,5.1,13.7,5.5C27.5,15.3,31.5,11.9,31.2,7.2z"/>
	<path class="st2" d="M23.7,16.7c4.8-0.2,6.8-2.4,8.7-4.5c2.4-2.6,6.6-4.3,14.7-1.7c-6.3,1.3-5.9,4.1-10.1,7
		C33.8,19.6,28.5,20.6,23.7,16.7z"/>
	<path class="st3" d="M52.1,3.7h0.3h3.6h0.3c1.4,0,3.2,0.3,3.7,2c0.2,0.7,0.2,1.6,0.2,2.2s0,1.3-0.2,2c-0.3,1-1.2,1.6-2.2,1.8l0,0
		c0.7,0.4,1,0.9,1.3,1.7l2.3,5.8h-0.3h-1.3h-0.3l-2.2-5.6c-0.7-1.7-1.6-1.7-2.4-1.7h-0.7v7.5h-0.3h-1.3h-0.3V3.7L52.1,3.7z
		 M85.6,19.4h0.2h0.1h0.7h0.3h0.2h0.1l3.2-14.7c0.1-0.2,0.2-0.4,0.4-0.6c0.2,0.1,0.3,0.2,0.3,0.6v14.7h0.4h1.2h0.4V5.5
		c0-1.8-0.7-2-2.1-2c-0.1,0-0.1,0-0.2,0c-0.1,0-0.1,0-0.2,0c-1.4,0-1.9,0.6-2.2,1.9l-2.1,10.1L84.3,5.4C84,4,83.5,3.5,82.1,3.5
		c-0.1,0-0.1,0-0.2,0s-0.1,0-0.2,0c-1.4,0-2.1,0.3-2.1,2v13.9H80h1.2h0.4V4.7c0-0.3,0.1-0.4,0.3-0.6c0.2,0.1,0.3,0.2,0.4,0.6l3,14.7
		H85.6z M109.8,7.4h0.3c1.1,0,2.4,0.2,2.9,1.6c0.1,0.4,0.2,1.2,0.2,1.7c0,0.6,0,1.1-0.2,1.6c-0.2,0.8-1,1.2-1.7,1.4l0,0
		c0.6,0.3,0.8,0.7,1,1.3l1.8,4.5h-0.3h-1h-0.3l-1.8-4.3c-0.4-1.2-1.1-1.2-1.9-1.2h-0.6v5.6H108h-0.9h-0.3v-12h0.3H109.8L109.8,7.4z
		 M108.3,10.7c0-0.6,0-1.2,0.2-1.8c0.2-0.6,0.7-1,1.4-1c0.4,0,0.8,0.2,1.1,0.4c0.4,0.4,0.6,1.6,0.6,2.2c0,1.7-0.4,2.6-2.3,2.6l0,0
		h-1V10.7z M100.1,7.1H100h-0.1c-1.1,0-1.4,0.3-1.8,1.7l-2.6,10.6h0.2h0.9H97l1-4.2c0.4,0,1.2-0.1,1.9-0.1c0.8,0,1.4,0.1,1.9,0.1
		l1,4.2h0.3h0.9h0.3l-2.6-10.6C101.6,7.6,101.2,7.1,100.1,7.1z M98.2,14.3c0.4,0,1.1,0.1,1.8,0.1s1.3-0.1,1.8-0.1l-1.6-6.1
		c0-0.2-0.1-0.3-0.3-0.4c-0.1,0-0.2,0.2-0.3,0.4L98.2,14.3z M76.4,13.4c0,0.8,0,1.4-0.1,2.1c0,0.7-0.1,1.4-0.3,1.9
		c-0.6,1.6-1.7,2.2-3.2,2.2c-0.1,0-0.1,0-0.2,0s-0.1,0-0.2,0c-1.6,0-2.7-0.7-3.2-2.2c-0.1-0.4-0.2-1.1-0.3-1.9
		c0-0.7-0.1-1.4-0.1-2.1c0-0.8,0-1.4,0.1-2.1c0-0.7,0.1-1.4,0.3-1.9c0.6-1.6,1.7-2.2,3.2-2.2c0.1,0,0.1,0,0.2,0s0.1,0,0.2,0
		c1.6,0,2.7,0.7,3.2,2.2c0.1,0.4,0.2,1.1,0.3,1.9C76.4,11.9,76.4,12.7,76.4,13.4z M72.6,19c-0.9-0.1-1.6-0.7-1.8-1.7
		c-0.1-0.6-0.1-1.3-0.2-1.9c0-0.8-0.1-1.4-0.1-2.1c0-0.7,0-1.4,0.1-2.1c0-0.6,0.1-1.3,0.2-1.9c0.2-0.9,0.9-1.6,1.8-1.7
		c0.9,0.1,1.6,0.8,1.8,1.7c0.1,0.4,0.1,1.1,0.2,1.9c0,0.8,0.1,1.4,0.1,2.1c0,0.7,0,1.4-0.1,2.1c0,0.7-0.1,1.4-0.2,1.9
		C74.3,18.4,73.5,18.9,72.6,19z M65.4,19.4h0.4v-12h-0.4h-0.8h-0.4v12h0.4H65.4z M53.9,8c0-0.7,0-1.7,0.2-2.2
		c0.2-0.8,0.9-1.2,1.9-1.3c0.7,0,1.1,0.2,1.4,0.6c0.7,0.7,0.8,2,0.8,2.9c0,2.1-0.7,3.3-3,3.3l0,0h-1.3V8z"/>
	<path class="st4" d="M54.5,27.3L54.5,27.3c0.4-0.1,0.9-0.3,1-0.8c0.1-0.3,0.1-0.6,0.1-0.9c0-0.3,0-0.7-0.1-1
		c-0.2-0.8-1-0.9-1.7-0.9h-1.8v6.8h0.8v-3.1h0.4c0.4,0,0.9,0,1.2,0.8l1,2.4h0.8l-1-2.6C54.9,27.6,54.7,27.4,54.5,27.3z M53.5,27.1
		h-0.8v-1.4c0-0.3,0-0.7,0.1-1c0.1-0.3,0.4-0.6,1-0.6c0.3,0,0.6,0.1,0.7,0.2c0.3,0.3,0.3,0.9,0.3,1.2C54.8,26.5,54.5,27.1,53.5,27.1
		z"/>
	<path class="st4" d="M59.5,25.6c-0.7,0-1.3,0.2-1.6,0.9c0,0.2,0,0.6,0,0.9c0,0.2,0,0.6,0,0.8c0,0.3,0,0.6,0,0.9s0,0.6,0.1,0.8
		c0.2,0.7,0.9,0.9,1.4,0.9h0.1v-0.3h-0.1c-0.3,0-0.7-0.2-0.8-0.6c0-0.1-0.1-0.4-0.1-0.8c0-0.1,0-0.6,0-0.7c0.7,0,1.4,0.1,1.9-0.2
		c0.3-0.2,0.4-0.4,0.6-0.8c0-0.1,0-0.2,0-0.3C61.1,26.1,60.3,25.6,59.5,25.6z M60.4,26.8c0,0.3-0.1,0.7-0.3,0.9
		c-0.3,0.3-0.9,0.2-1.4,0.2v-0.1c0-0.2,0-0.4,0-0.8c0-0.4,0.1-0.6,0.1-0.7c0.1-0.3,0.4-0.6,0.8-0.6s0.7,0.2,0.8,0.6
		C60.4,26.6,60.4,26.7,60.4,26.8z"/>
	<path class="st4" d="M64.5,25.6c-0.7,0-1.2,0.2-1.4,0.9C63,26.7,63,27.1,63,27.4c0,0.2,0,0.6,0,0.8c0,0.3,0,0.6,0,0.9
		s0,0.6,0.1,0.8c0.2,0.7,0.9,0.9,1.6,0.9h0.1v-0.3h-0.1c-0.3,0-0.7-0.2-0.8-0.6c0-0.1-0.1-0.4-0.1-0.8c0-0.3,0-0.6,0-0.9
		c0-0.2,0-0.4,0-0.8c0-0.4,0.1-0.8,0.1-0.9c0.1-0.3,0.4-0.6,0.8-0.6s0.6,0.2,0.8,0.6c0,0.1,0.1,0.3,0,0.7h0.7c0-0.2,0-0.4-0.1-0.6
		C65.6,25.9,65.2,25.6,64.5,25.6z"/>
	<path class="st5" d="M68.4,25.7h-0.7v4.8h0.7V25.7z"/>
	<path class="st4" d="M70.3,24.5c-0.1,0.3-0.1,0.7-0.1,1v0.6l0,0v4.5h0.7v-2.4v-0.8c0-0.3,0-0.7,0.1-0.8c0.1-0.3,0.4-0.6,0.8-0.6
		h0.1v-0.3h-0.1c-0.3,0-0.6,0.1-0.9,0.2v-0.3l0,0c0-0.3,0-0.7,0.1-1c0.1-0.3,0.4-0.6,0.8-0.6h0.1v-0.3h-0.1
		C71.2,23.6,70.5,23.9,70.3,24.5z"/>
	<path class="st4" d="M75.4,25.6c-0.7,0-1.3,0.2-1.6,0.9c-0.1,0.2-0.1,0.6-0.1,0.9c0,0.2,0,0.6,0,0.8c0,0.3,0,0.6,0,0.9
		s0,0.6,0.1,0.8c0.2,0.7,0.9,0.9,1.6,0.9h0.1v-0.3h-0.1c-0.3,0-0.7-0.2-0.8-0.6c0-0.1-0.1-0.4-0.1-0.8c0-0.1,0-0.6,0-0.7
		c0.7,0,1.4,0.1,1.9-0.2c0.3-0.2,0.4-0.4,0.6-0.8c0-0.1,0-0.2,0-0.3C77,26.1,76.2,25.6,75.4,25.6z M76.3,26.8c0,0.3-0.1,0.7-0.3,0.9
		c-0.3,0.3-0.9,0.2-1.4,0.2v-0.1c0-0.2,0-0.4,0-0.8c0-0.4,0.1-0.6,0.1-0.7c0.1-0.3,0.4-0.6,0.8-0.6c0.3,0,0.7,0.2,0.8,0.6
		C76.3,26.6,76.3,26.7,76.3,26.8z"/>
</g>
</svg>
